# xmcd
#
# Track frame offsets:
#	150
#	12155
#	25627
#	38317
#	50425
#	65865
#	80492
#	90972
#	103757
#	111952
#	125812
#	137022
#	152065
#	163085
#	176485
#	193475
#	204212
#	216652
#	229865
#	243087
#	257550
#
# Disc length: 3648
#
# Revision: 2
# Processed by: cddbd v1.5.1PL0 Copyright (c) Steve Scherf et al.
# Submitted via: CDex 1.30
# Normalized: r1:TDELIM( - )
#
DISCID=1f0e3e15
DTITLE=Country - L'anthologie de la country CD 1
DYEAR=2002
DGENRE=Country
TTITLE0=Dolly Parton - Jolene
TTITLE1=Nitty Gritty Dirt Band - Grand Old Opry Song
TTITLE2=Don Williams - Some Broken Hearts Never Mend
TTITLE3=Billie Joe Spears - C'est La Vie
TTITLE4=Jeannie C. Riley - Harper Valley
TTITLE5=Kenny Rogers - For The Good Times
TTITLE6=Ricky Nelson - Hello MaryLou
TTITLE7=Exile - Give Me One More Chance
TTITLE8=Johnny Cash - Guess Things Happen That Way
TTITLE9=Lee Greenwood - Dixie Road
TTITLE10=Jo Ann Houston - The Race Is On
TTITLE11=Kenny Dale - Bluest Heartache Of The Year
TTITLE12=Buck Owens - My Heart Ships A Beats
TTITLE13=Kenny Rogers - Ruby Don't Take Your Love To Town
TTITLE14=Roy Acuff - I Saw The Light
TTITLE15=Patsy Cline - Honky Tonk Mercy Go Round
TTITLE16=Willie Nelson And Shirley Collie - Willingly
TTITLE17=Merle Hagard - The Fighting Side Of Me
TTITLE18=The Ranch - Walkin' The Country
TTITLE19=The bellamy Brothers - I Said You had A Beautiful Body
TTITLE20=Carl Smith - Country Bumpkin
EXTD=\nYEAR: 2002  ID3G:   2
EXTT0=
EXTT1=
EXTT2=
EXTT3=
EXTT4=
EXTT5=
EXTT6=
EXTT7=
EXTT8=
EXTT9=
EXTT10=
EXTT11=
EXTT12=
EXTT13=
EXTT14=
EXTT15=
EXTT16=
EXTT17=
EXTT18=
EXTT19=
EXTT20=
PLAYORDER=
